# xmcd
#
# Track frame offsets: 
#        187
#        20485
#        36297
#        60965
#        74697
#        93432
#        112505
#        132372
#        155642
#        176660
#
# Disc length: 2619 seconds
#
# Revision: 1
# Processed by: cddbd v1.5.2PL0 Copyright (c) Steve Scherf et al.
# Submitted via: ExactAudioCopyFreeDBPlugin 1.0
#
DISCID=800a390a
DTITLE=Steve Earle - Copperhead Road
DYEAR=1988
DGENRE=Country
TTITLE0=Copperhead Road
TTITLE1=Snake Oil
TTITLE2=Back to the Wall
TTITLE3=The Devil's Right Hand
TTITLE4=Johnny Come Lately
TTITLE5=Even When I'm Blue
TTITLE6=You Belong to Me
TTITLE7=Waiting on You
TTITLE8=Once You Love
TTITLE9=Nothing But a Child
EXTD=
EXTT0=
EXTT1=
EXTT2=
EXTT3=
EXTT4=
EXTT5=
EXTT6=
EXTT7=
EXTT8=
EXTT9=
PLAYORDER=
